<?xml version="1.0" standalone="no"?>
<!DOCTYPE svg PUBLIC "-//W3C//DTD SVG 20010904//EN"
 "http://www.w3.org/TR/2001/REC-SVG-20010904/DTD/svg10.dtd">
<svg version="1.0" xmlns="http://www.w3.org/2000/svg"
 width="1815.000000pt" height="1815.000000pt" viewBox="0 0 1815.000000 1815.000000"
 preserveAspectRatio="xMidYMid meet">
<metadata>
Created by potrace 1.14, written by Peter Selinger 2001-2017
</metadata>
<g transform="translate(0.000000,1815.000000) scale(0.100000,-0.100000)"
fill="#000000" stroke="none">
<path d="M8555 18129 c-1782 -100 -3497 -725 -4919 -1793 -384 -288 -647 -516
-986 -856 -1411 -1411 -2298 -3203 -2569 -5190 -88 -643 -105 -1395 -45 -2040
67 -730 208 -1396 443 -2091 244 -722 577 -1403 999 -2049 491 -752 1102
-1436 1802 -2019 1309 -1090 2942 -1798 4635 -2010 453 -57 799 -75 1300 -68
389 6 599 18 929 57 2453 289 4687 1579 6183 3571 1003 1335 1614 2924 1768
4599 49 530 48 1163 -1 1690 -168 1810 -880 3524 -2048 4935 -265 320 -690
758 -993 1022 -1555 1360 -3452 2130 -5523 2243 -210 11 -766 11 -975 -1z"/>
</g>
</svg>
